<svg id="Layer_1" data-name="Layer 1" xmlns="http://www.w3.org/2000/svg" viewBox="0 0 1326.07 300"><defs><style>.cls-1{fill:#fff;}.cls-1,.cls-2,.cls-3,.cls-4,.cls-5{fill-rule:evenodd;}.cls-2{fill:#fcb769;}.cls-3{fill:#a4664d;}.cls-4{fill:#e58e73;}.cls-5{fill:#6ea8bc;}</style></defs><title>140210 QicQ Logo Witte Letters RGB</title><path class="cls-1" d="M633.59,232.54a82.54,82.54,0,1,1,74.77-117.83h71.29A150.26,150.26,0,0,0,633.59,0c-83,0-150.29,67.16-150.29,150s67.29,150,150.29,150A150.25,150.25,0,0,0,780.3,182.51H709.62a82.71,82.71,0,0,1-76,50" transform="translate(0)"/><path class="cls-1" d="M91.26,208A82.2,82.2,0,1,1,226.8,177.54l50.11,50.1a149.41,149.41,0,1,0-47.29,48.19l-49.68-49.67A82.23,82.23,0,0,1,91.26,208" transform="translate(0)"/><polyline class="cls-1" points="292.13 298.07 139.78 156.34 151.88 143.33 304.23 285.07 292.13 298.07"/><path class="cls-1" d="M915.74,208a82.2,82.2,0,1,1,135.54-30.42l50.11,50.1a149.41,149.41,0,1,0-47.29,48.19l-49.68-49.67A82.23,82.23,0,0,1,915.74,208" transform="translate(0)"/><polyline class="cls-1" points="1116.6 298.07 964.25 156.34 976.36 143.33 1128.71 285.07 1116.6 298.07"/><path class="cls-1" d="M359.45,75.16H427V300H359.45V75.16Zm0,0" transform="translate(0)"/><path class="cls-1" d="M359.45.54H427v53.3H359.45V.54Zm0,0" transform="translate(0)"/><path class="cls-2" d="M1194.58,84.71h56.86v56.85h-56.86V84.71Zm0,0" transform="translate(0)"/><path class="cls-3" d="M1194.58,159.33h56.86v56.85h-56.86V159.33Zm0,0" transform="translate(0)"/><path class="cls-4" d="M1269.21,159.33h56.86v56.85h-56.86V159.33Zm0,0" transform="translate(0)"/><path class="cls-5" d="M1269.21,84.71h56.86v56.85h-56.86V84.71Zm0,0" transform="translate(0)"/></svg>